<?xml version="1.0" encoding="utf-8"?><svg xmlns="http://www.w3.org/2000/svg" xmlns:xlink="http://www.w3.org/1999/xlink"><symbol viewBox="0 0 24 24" id="check" xmlns="http://www.w3.org/2000/svg"><path d="M0 0h24v24H0z" fill="none"/><path d="M9 16.17L4.83 12l-1.42 1.41L9 19 21 7l-1.41-1.41z"/></symbol><symbol viewBox="0 0 24 24" id="chevron-left" xmlns="http://www.w3.org/2000/svg"><path d="M15.41 7.41L14 6l-6 6 6 6 1.41-1.41L10.83 12z"/><path d="M0 0h24v24H0z" fill="none"/></symbol><symbol viewBox="0 0 24 24" id="chevron-right" xmlns="http://www.w3.org/2000/svg"><path d="M10 6L8.59 7.41 13.17 12l-4.58 4.59L10 18l6-6z"/><path d="M0 0h24v24H0z" fill="none"/></symbol><symbol viewBox="0 0 24 24" id="close" xmlns="http://www.w3.org/2000/svg"><path d="M19 6.41L17.59 5 12 10.59 6.41 5 5 6.41 10.59 12 5 17.59 6.41 19 12 13.41 17.59 19 19 17.59 13.41 12z"/><path d="M0 0h24v24H0z" fill="none"/></symbol><symbol viewBox="0 0 24 24" id="expand-down" xmlns="http://www.w3.org/2000/svg"><path d="M16.59 8.59L12 13.17 7.41 8.59 6 10l6 6 6-6z"/><path d="M0 0h24v24H0z" fill="none"/></symbol><symbol viewBox="0 0 24 24" id="expand-up" xmlns="http://www.w3.org/2000/svg"><path d="M12 8l-6 6 1.41 1.41L12 10.83l4.59 4.58L18 14z"/><path d="M0 0h24v24H0z" fill="none"/></symbol><symbol viewBox="0 0 48 48" id="global-presence" xmlns="http://www.w3.org/2000/svg"><defs><linearGradient x1="49.963%" y1="1.851%" x2="49.963%" y2="99.243%" id="ga"><stop stop-color="#0DA88B" stop-opacity=".286" offset="0%"/><stop stop-color="#33AEAC" stop-opacity="0" offset="100%"/></linearGradient></defs><g fill="none" fill-rule="evenodd"><rect fill="#E6FCF5" width="48" height="48" rx="24"/><g transform="matrix(-1 0 0 1 37 11)"><circle fill="url(#ga)" fill-rule="nonzero" cx="13" cy="13" r="13"/><ellipse fill="#CFEEE8" fill-rule="nonzero" cx="13" cy="13" rx="13" ry="5"/><path d="M0 13c0-2.778 5.795-5 13-5s13 2.222 13 5" stroke="#0DA88B" stroke-width="1.5" opacity=".4"/><path d="M13 26c-2.778 0-5-5.795-5-13s2.222-13 5-13" stroke="#0DA88B" stroke-width="1.5" opacity=".4"/><path d="M26 13c0 2.778-5.795 5-13 5S0 15.778 0 13" stroke="#0DA88B" stroke-width="1.5"/><path d="M13 0c2.778 0 5 5.795 5 13s-2.222 13-5 13" stroke="#0DA88B" stroke-width="1.5"/><circle stroke="#0DA88B" stroke-width="1.5" cx="13" cy="13" r="13"/></g></g></symbol><symbol viewBox="0 0 221.1 93.54" id="logo" xmlns="http://www.w3.org/2000/svg"><defs><style>.hcls-1{fill:#1d1d1b}</style></defs><g id="hCalque_2" data-name="Calque 2"><path class="hcls-1" d="M145.17 88.92l4.8-.75v-33l-4.8-.73v-1.49h28.1v9h-1.84l-.89-6.06a78.61 78.61 0 0 0-9-.39h-6.12v14.6h10.11l.87-4.47h1.79v11.51h-1.79l-.87-4.53h-10.16v15.28h7.37a61.15 61.15 0 0 0 9.44-.45l1.59-6.93h1.84l-.53 9.89h-29.91zM187.32 88.17l4.64.75v1.48h-12.24v-1.48l4.13-.75 12.74-16.93-10.86-16.09-4.22-.73v-1.47H197v1.48l-4.75.73L200 66.72l8.69-11.56-4.69-.73v-1.48h12.26v1.48l-4.13.73-10.53 14 12.88 19 4.25.75v1.49H203.3v-1.48l4.75-.75-9.83-14.52zM10.12 90.4v-2l6-.76V55.91h-1.47a49.26 49.26 0 0 0-9 .56l-.75 7H2.36V52.95h36.4v10.47h-2.57l-.76-7a53 53 0 0 0-9.16-.5H24.9v31.69l5.95.76v2zM102.38 87.22l20.72-31.31h-6.7a48.82 48.82 0 0 0-8.94.56l-.87 5.89h-2.49v-9.41H133v3L112.18 87.5H120q3.18 0 6.27-.31a41.19 41.19 0 0 0 4.45-.61l1.65-7.15h2.52l-.76 11h-31.75zM62.85 20.71l-7.23-3A44.42 44.42 0 0 0 45 43.44l7.23 3a37.13 37.13 0 0 1 10.62-25.73zM126.7 46.59l7.24-3a44.41 44.41 0 0 0-10.58-25.76l-7.22 3a37.13 37.13 0 0 1 10.56 25.76zM52.2 47.22l-7.23 3a44.42 44.42 0 0 0 10.7 25.67l7.23-3a37.13 37.13 0 0 1-10.7-25.67zM115.63 20.29l3-7.24A44.42 44.42 0 0 0 92.8 2.29l-3 7.23a37.14 37.14 0 0 1 25.83 10.77zM89 9.53L86 2.3A44.42 44.42 0 0 0 60.39 13l3 7.23A37.13 37.13 0 0 1 89 9.53zM63.45 73.44l-3 7.23a44.42 44.42 0 0 0 25.48 10.58l3-7.22a37.13 37.13 0 0 1-25.48-10.59z"/></g></symbol><symbol viewBox="0 0 24 24" id="menu" xmlns="http://www.w3.org/2000/svg"><path d="M0 0h24v24H0z" fill="none"/><path d="M3 18h18v-2H3v2zm0-5h18v-2H3v2zm0-7v2h18V6H3z"/></symbol><symbol viewBox="0 0 48 48" id="security" xmlns="http://www.w3.org/2000/svg"><defs><linearGradient x1="44.213%" y1="22.157%" x2="59.975%" y2="91.256%" id="ja"><stop stop-color="#0069FF" stop-opacity=".4" offset="0%"/><stop stop-color="#0069FF" stop-opacity="0" offset="100%"/></linearGradient></defs><g fill="none" fill-rule="evenodd"><rect fill="#357CE1" opacity=".2" width="48" height="48" rx="24"/><path d="M13.5 29C6.09 26.487 1 21.82 1 14.928V5.954L13.5 1 26 5.954v8.974c.074 6.893-5.24 11.56-12.5 14.072z" fill="url(#ja)" fill-rule="nonzero" transform="translate(11 9)"/><path d="M24 10.61l11.514 4.683v8.634c.074 7.83-6.983 11.78-11.514 13.536-9.509-3.512-11.514-9.292-11.514-13.536v-8.634L24 10.61zM24 9l-13 5.341v9.586C11 31.244 16.274 36.293 24 39c7.577-2.707 13.074-7.756 13-15.073V14.34L24 9z" fill="#357CE1" fill-rule="nonzero"/><path d="M24 13l-9 3.917v7.03c0 5.365 3.651 9.068 9 11.053 5.245-1.985 9.05-5.688 9-11.054v-7.029L24 13z" stroke="#357CE1" stroke-width="1.5" fill-rule="nonzero"/><path d="M27.155 20.174l-4.729 4.621-1.283-1.386c-.56-.463-1.443.077-1.042.77l1.523 2.465c.24.308.802.616 1.363 0 .24-.308 4.809-5.777 4.809-5.777.56-.616-.16-1.155-.641-.693" fill="#357CE1"/></g></symbol><symbol viewBox="0 0 48 48" id="service" xmlns="http://www.w3.org/2000/svg"><defs><linearGradient x1="49.963%" y1="1.851%" x2="49.963%" y2="95.67%" id="ka"><stop stop-color="#FDD583" offset="0%"/><stop stop-color="#FEEFD0" offset="100%"/></linearGradient></defs><g fill="none" fill-rule="evenodd"><rect fill="#FAAD14" opacity=".2" width="48" height="48" rx="24"/><g fill-rule="nonzero"><path d="M18 22.285A10.766 10.766 0 0 1 5.48 23.29L.459 24.963c-.35.122-.54-.068-.425-.427l1.68-5.05a10.973 10.973 0 0 1-.254-10.712A10.857 10.857 0 0 1 10.436 3a12.688 12.688 0 0 0-1.228 11.63A12.58 12.58 0 0 0 18 22.284z" fill="url(#ka)" transform="translate(9 12)"/><path d="M28.28 15.74c2.815-4.513 1.669-10.32-2.674-13.545-4.342-3.226-10.52-2.859-14.411.855-3.89 3.713-4.275 9.611-.896 13.756 3.379 4.145 9.462 5.24 14.19 2.553l5.05 1.609c.353.11.542-.071.427-.407l-1.686-4.822z" fill="url(#ka)" transform="translate(9 12)"/><path d="M36.359 27.74a10.412 10.412 0 1 0-3.62 3.619l4.822 1.609c.336.11.517-.071.407-.407l-1.61-4.822z" stroke="#FAAD14" stroke-width="1.5"/><path d="M23.5 23a1.5 1.5 0 1 1 0-3 1.5 1.5 0 0 1 0 3zm4 0a1.5 1.5 0 1 1 0-3 1.5 1.5 0 0 1 0 3zm4 0a1.5 1.5 0 1 1 0-3 1.5 1.5 0 0 1 0 3z" fill="#FAAD14"/></g></g></symbol></svg>